<mxfile host="app.diagrams.net" modified="2021-11-04T13:36:21.120Z" agent="5.0 (Windows NT 10.0; Win64; x64) AppleWebKit/537.36 (KHTML, like Gecko) Chrome/92.0.4515.131 Safari/537.36" etag="JzDH0ayvGAKtEbN-Pf0K" version="15.6.8" type="github">
  <diagram id="KfAR4TID4Bc1_DBofIgW" name="第 1 页">
    <mxGraphModel dx="1422" dy="761" grid="0" gridSize="10" guides="1" tooltips="1" connect="1" arrows="1" fold="1" page="0" pageScale="1" pageWidth="827" pageHeight="1169" background="#FFFDFA" math="0" shadow="0">
      <root>
        <mxCell id="0" />
        <mxCell id="1" parent="0" />
        <mxCell id="44p9dVUpJdmk08ztDr2i-1" value="&lt;p&gt;&lt;font face=&quot;Comic Sans MS&quot; style=&quot;font-size: 16px&quot;&gt;DispatcherServlet调用组件过程&lt;/font&gt;&lt;/p&gt;" style="text;html=1;align=center;verticalAlign=middle;resizable=0;points=[];autosize=1;strokeColor=none;fillColor=none;" vertex="1" parent="1">
          <mxGeometry x="30" y="40" width="250" height="50" as="geometry" />
        </mxCell>
        <mxCell id="44p9dVUpJdmk08ztDr2i-2" value="FrameWorkServlet" style="rounded=0;whiteSpace=wrap;html=1;fontFamily=Comic Sans MS;fontSize=16;" vertex="1" parent="1">
          <mxGeometry x="50" y="110" width="150" height="40" as="geometry" />
        </mxCell>
        <mxCell id="44p9dVUpJdmk08ztDr2i-3" value="DispatcherServlet" style="rounded=0;whiteSpace=wrap;html=1;fontFamily=Comic Sans MS;fontSize=16;" vertex="1" parent="1">
          <mxGeometry x="280" y="110" width="150" height="40" as="geometry" />
        </mxCell>
        <mxCell id="44p9dVUpJdmk08ztDr2i-4" value="" style="endArrow=none;html=1;rounded=0;fontFamily=Comic Sans MS;fontSize=16;entryX=0.5;entryY=1;entryDx=0;entryDy=0;startArrow=none;" edge="1" parent="1" source="44p9dVUpJdmk08ztDr2i-7" target="44p9dVUpJdmk08ztDr2i-2">
          <mxGeometry width="50" height="50" relative="1" as="geometry">
            <mxPoint x="125" y="360" as="sourcePoint" />
            <mxPoint x="440" y="340" as="targetPoint" />
          </mxGeometry>
        </mxCell>
        <mxCell id="44p9dVUpJdmk08ztDr2i-6" value="service()" style="rounded=1;whiteSpace=wrap;html=1;fontFamily=Comic Sans MS;fontSize=16;fillColor=#f5f5f5;fontColor=#333333;strokeColor=#666666;" vertex="1" parent="1">
          <mxGeometry x="85" y="180" width="80" height="30" as="geometry" />
        </mxCell>
        <mxCell id="44p9dVUpJdmk08ztDr2i-7" value="doGet()" style="rounded=1;whiteSpace=wrap;html=1;fontFamily=Comic Sans MS;fontSize=16;fillColor=#f5f5f5;fontColor=#333333;strokeColor=#666666;" vertex="1" parent="1">
          <mxGeometry x="85" y="230" width="80" height="30" as="geometry" />
        </mxCell>
        <mxCell id="44p9dVUpJdmk08ztDr2i-8" value="" style="endArrow=none;html=1;rounded=0;fontFamily=Comic Sans MS;fontSize=16;entryX=0.5;entryY=1;entryDx=0;entryDy=0;startArrow=none;" edge="1" parent="1" source="44p9dVUpJdmk08ztDr2i-10" target="44p9dVUpJdmk08ztDr2i-7">
          <mxGeometry width="50" height="50" relative="1" as="geometry">
            <mxPoint x="125" y="440" as="sourcePoint" />
            <mxPoint x="125" y="150" as="targetPoint" />
          </mxGeometry>
        </mxCell>
        <mxCell id="44p9dVUpJdmk08ztDr2i-9" value="doPost()" style="rounded=1;whiteSpace=wrap;html=1;fontFamily=Comic Sans MS;fontSize=16;fillColor=#f5f5f5;fontColor=#333333;strokeColor=#666666;" vertex="1" parent="1">
          <mxGeometry x="85" y="280" width="80" height="30" as="geometry" />
        </mxCell>
        <mxCell id="44p9dVUpJdmk08ztDr2i-10" value="doXxx()" style="rounded=1;whiteSpace=wrap;html=1;fontFamily=Comic Sans MS;fontSize=16;fillColor=#f5f5f5;fontColor=#333333;strokeColor=#666666;" vertex="1" parent="1">
          <mxGeometry x="85" y="330" width="80" height="30" as="geometry" />
        </mxCell>
        <mxCell id="44p9dVUpJdmk08ztDr2i-11" value="" style="endArrow=none;html=1;rounded=0;fontFamily=Comic Sans MS;fontSize=16;entryX=0.5;entryY=1;entryDx=0;entryDy=0;" edge="1" parent="1" target="44p9dVUpJdmk08ztDr2i-10">
          <mxGeometry width="50" height="50" relative="1" as="geometry">
            <mxPoint x="125" y="440" as="sourcePoint" />
            <mxPoint x="125" y="270" as="targetPoint" />
          </mxGeometry>
        </mxCell>
        <mxCell id="44p9dVUpJdmk08ztDr2i-12" value="processRequest" style="text;whiteSpace=wrap;html=1;fontSize=16;fontFamily=Comic Sans MS;fillColor=#fff2cc;strokeColor=#d6b656;rounded=1;align=center;" vertex="1" parent="1">
          <mxGeometry x="55" y="390" width="140" height="30" as="geometry" />
        </mxCell>
        <mxCell id="44p9dVUpJdmk08ztDr2i-14" value="" style="endArrow=classic;html=1;rounded=0;fontFamily=Comic Sans MS;fontSize=16;exitX=1;exitY=0.5;exitDx=0;exitDy=0;entryX=1;entryY=0.5;entryDx=0;entryDy=0;" edge="1" parent="1" source="44p9dVUpJdmk08ztDr2i-6" target="44p9dVUpJdmk08ztDr2i-12">
          <mxGeometry width="50" height="50" relative="1" as="geometry">
            <mxPoint x="390" y="290" as="sourcePoint" />
            <mxPoint x="440" y="240" as="targetPoint" />
            <Array as="points">
              <mxPoint x="230" y="195" />
              <mxPoint x="230" y="405" />
            </Array>
          </mxGeometry>
        </mxCell>
        <mxCell id="44p9dVUpJdmk08ztDr2i-15" value="" style="endArrow=classic;html=1;rounded=0;fontFamily=Comic Sans MS;fontSize=16;exitX=1;exitY=0.5;exitDx=0;exitDy=0;" edge="1" parent="1" source="44p9dVUpJdmk08ztDr2i-7">
          <mxGeometry width="50" height="50" relative="1" as="geometry">
            <mxPoint x="390" y="290" as="sourcePoint" />
            <mxPoint x="230" y="245" as="targetPoint" />
          </mxGeometry>
        </mxCell>
        <mxCell id="44p9dVUpJdmk08ztDr2i-16" value="" style="endArrow=classic;html=1;rounded=0;fontFamily=Comic Sans MS;fontSize=16;exitX=1;exitY=0.5;exitDx=0;exitDy=0;" edge="1" parent="1">
          <mxGeometry width="50" height="50" relative="1" as="geometry">
            <mxPoint x="165" y="294.5" as="sourcePoint" />
            <mxPoint x="230" y="294.5" as="targetPoint" />
          </mxGeometry>
        </mxCell>
        <mxCell id="44p9dVUpJdmk08ztDr2i-17" value="" style="endArrow=classic;html=1;rounded=0;fontFamily=Comic Sans MS;fontSize=16;exitX=1;exitY=0.5;exitDx=0;exitDy=0;" edge="1" parent="1">
          <mxGeometry width="50" height="50" relative="1" as="geometry">
            <mxPoint x="165" y="344.5" as="sourcePoint" />
            <mxPoint x="230" y="344.5" as="targetPoint" />
          </mxGeometry>
        </mxCell>
        <mxCell id="44p9dVUpJdmk08ztDr2i-18" value="" style="endArrow=none;html=1;rounded=0;fontFamily=Comic Sans MS;fontSize=16;entryX=0.5;entryY=1;entryDx=0;entryDy=0;startArrow=none;" edge="1" parent="1" source="44p9dVUpJdmk08ztDr2i-19" target="44p9dVUpJdmk08ztDr2i-3">
          <mxGeometry width="50" height="50" relative="1" as="geometry">
            <mxPoint x="355" y="440" as="sourcePoint" />
            <mxPoint x="440" y="240" as="targetPoint" />
          </mxGeometry>
        </mxCell>
        <mxCell id="44p9dVUpJdmk08ztDr2i-19" value="重写doService()" style="rounded=1;whiteSpace=wrap;html=1;fontFamily=Comic Sans MS;fontSize=16;fillColor=#f5f5f5;fontColor=#333333;strokeColor=#666666;" vertex="1" parent="1">
          <mxGeometry x="291.25" y="180" width="127.5" height="30" as="geometry" />
        </mxCell>
        <mxCell id="44p9dVUpJdmk08ztDr2i-21" value="" style="endArrow=none;html=1;rounded=0;fontFamily=Comic Sans MS;fontSize=16;entryX=0.5;entryY=1;entryDx=0;entryDy=0;" edge="1" parent="1" target="44p9dVUpJdmk08ztDr2i-19">
          <mxGeometry width="50" height="50" relative="1" as="geometry">
            <mxPoint x="355" y="440" as="sourcePoint" />
            <mxPoint x="355" y="150" as="targetPoint" />
          </mxGeometry>
        </mxCell>
        <mxCell id="44p9dVUpJdmk08ztDr2i-22" value="" style="endArrow=classic;html=1;rounded=0;fontFamily=Comic Sans MS;fontSize=16;exitX=0.75;exitY=1;exitDx=0;exitDy=0;entryX=0;entryY=0.5;entryDx=0;entryDy=0;dashed=1;" edge="1" parent="1" source="44p9dVUpJdmk08ztDr2i-12" target="44p9dVUpJdmk08ztDr2i-19">
          <mxGeometry width="50" height="50" relative="1" as="geometry">
            <mxPoint x="440" y="330" as="sourcePoint" />
            <mxPoint x="490" y="280" as="targetPoint" />
            <Array as="points">
              <mxPoint x="160" y="450" />
              <mxPoint x="260" y="450" />
              <mxPoint x="260" y="195" />
            </Array>
          </mxGeometry>
        </mxCell>
        <mxCell id="44p9dVUpJdmk08ztDr2i-23" value="doDispatch" style="text;whiteSpace=wrap;html=1;fontSize=16;fontFamily=Comic Sans MS;fillColor=#fff2cc;strokeColor=#d6b656;rounded=1;align=center;" vertex="1" parent="1">
          <mxGeometry x="285" y="240" width="140" height="30" as="geometry" />
        </mxCell>
        <mxCell id="44p9dVUpJdmk08ztDr2i-25" value="" style="endArrow=classic;html=1;rounded=0;fontFamily=Comic Sans MS;fontSize=16;exitX=1;exitY=0.5;exitDx=0;exitDy=0;entryX=1;entryY=0.5;entryDx=0;entryDy=0;" edge="1" parent="1" source="44p9dVUpJdmk08ztDr2i-19" target="44p9dVUpJdmk08ztDr2i-23">
          <mxGeometry width="50" height="50" relative="1" as="geometry">
            <mxPoint x="390" y="280" as="sourcePoint" />
            <mxPoint x="440" y="230" as="targetPoint" />
            <Array as="points">
              <mxPoint x="450" y="195" />
              <mxPoint x="450" y="255" />
            </Array>
          </mxGeometry>
        </mxCell>
        <mxCell id="44p9dVUpJdmk08ztDr2i-29" value="&lt;blockquote style=&quot;margin: 0 0 0 40px ; border: none ; padding: 0px&quot;&gt;&lt;div&gt;&lt;span&gt;&lt;font face=&quot;Times New Roman&quot;&gt;1、调用HandlerMapping组件，查找控制器方法。&lt;/font&gt;&lt;/span&gt;&lt;/div&gt;&lt;div&gt;&lt;font face=&quot;Times New Roman&quot;&gt;&lt;span&gt;得到&lt;/span&gt;&lt;font color=&quot;#4d8077&quot;&gt;mappedHandler&lt;/font&gt;&lt;span&gt;调用链。&lt;/span&gt;&lt;/font&gt;&lt;/div&gt;&lt;font face=&quot;Times New Roman&quot;&gt;&lt;font color=&quot;#4d8077&quot;&gt;&lt;div&gt;&lt;span&gt;（&lt;/span&gt;&lt;span&gt;handler：匹配到的控制器方法；&lt;/span&gt;&lt;/div&gt;&lt;/font&gt;&lt;font color=&quot;#4d8077&quot;&gt;&lt;div&gt;&lt;span&gt;interceptorList：拦截器集合；&lt;/span&gt;&lt;/div&gt;&lt;/font&gt;&lt;font color=&quot;#4d8077&quot;&gt;&lt;div&gt;&lt;span&gt;interceptorIndex：拦截器索引）&lt;/span&gt;&lt;/div&gt;&lt;/font&gt;2、调用HandlerAdapter组件。通过控制器方法创建相应的处理器适配器。&lt;br&gt;3、调用拦截器的preHandle()&lt;br&gt;4、由HandlerAdapter组件调用具体的控制器方法，获得ModelAndView&lt;br&gt;5、调用拦截器的postHandle()&lt;br&gt;6、后续处理：处理模型数据和渲染视图。调用ViewResolver和View组件，进行视图解析和将模型数据通过页面展示给用户。后续还有执行拦截器的afterCompletion。&lt;/font&gt;&lt;/blockquote&gt;" style="rounded=1;whiteSpace=wrap;html=1;fontFamily=Comic Sans MS;fontSize=16;align=left;fillColor=#e1d5e7;strokeColor=#9673a6;" vertex="1" parent="1">
          <mxGeometry x="501" y="140" width="740" height="260" as="geometry" />
        </mxCell>
        <mxCell id="44p9dVUpJdmk08ztDr2i-30" value="" style="shape=arrow;endArrow=classic;html=1;rounded=0;fontFamily=Times New Roman;fontSize=16;fontColor=#000000;exitX=0.75;exitY=1;exitDx=0;exitDy=0;entryX=0;entryY=0.75;entryDx=0;entryDy=0;" edge="1" parent="1" source="44p9dVUpJdmk08ztDr2i-23" target="44p9dVUpJdmk08ztDr2i-29">
          <mxGeometry width="50" height="50" relative="1" as="geometry">
            <mxPoint x="420" y="390" as="sourcePoint" />
            <mxPoint x="470" y="340" as="targetPoint" />
            <Array as="points">
              <mxPoint x="390" y="335" />
            </Array>
          </mxGeometry>
        </mxCell>
        <mxCell id="44p9dVUpJdmk08ztDr2i-34" value="" style="edgeStyle=orthogonalEdgeStyle;rounded=0;orthogonalLoop=1;jettySize=auto;html=1;fontFamily=Times New Roman;fontSize=16;fontColor=#000000;startArrow=none;startFill=0;endArrow=classic;endFill=1;strokeWidth=2;" edge="1" parent="1" source="44p9dVUpJdmk08ztDr2i-32" target="44p9dVUpJdmk08ztDr2i-33">
          <mxGeometry relative="1" as="geometry" />
        </mxCell>
        <mxCell id="44p9dVUpJdmk08ztDr2i-32" value="客户端发送请求" style="text;html=1;align=center;verticalAlign=middle;resizable=0;points=[];autosize=1;strokeColor=none;fillColor=none;fontSize=16;fontFamily=Times New Roman;fontColor=#000000;" vertex="1" parent="1">
          <mxGeometry x="35" y="575" width="130" height="20" as="geometry" />
        </mxCell>
        <mxCell id="44p9dVUpJdmk08ztDr2i-36" style="edgeStyle=orthogonalEdgeStyle;rounded=0;orthogonalLoop=1;jettySize=auto;html=1;exitX=1;exitY=0.5;exitDx=0;exitDy=0;fontFamily=Times New Roman;fontSize=16;fontColor=#000000;startArrow=none;startFill=0;endArrow=classic;endFill=1;strokeWidth=2;" edge="1" parent="1" source="44p9dVUpJdmk08ztDr2i-33">
          <mxGeometry relative="1" as="geometry">
            <mxPoint x="440" y="585" as="targetPoint" />
          </mxGeometry>
        </mxCell>
        <mxCell id="44p9dVUpJdmk08ztDr2i-38" value="" style="edgeStyle=orthogonalEdgeStyle;rounded=0;orthogonalLoop=1;jettySize=auto;html=1;fontFamily=Times New Roman;fontSize=16;fontColor=#000000;startArrow=none;startFill=0;endArrow=classic;endFill=1;strokeWidth=2;" edge="1" parent="1" source="44p9dVUpJdmk08ztDr2i-33" target="44p9dVUpJdmk08ztDr2i-37">
          <mxGeometry relative="1" as="geometry" />
        </mxCell>
        <mxCell id="44p9dVUpJdmk08ztDr2i-33" value="&lt;b&gt;DispatcherServlet&lt;/b&gt;对url进行解析" style="whiteSpace=wrap;html=1;rounded=1;fontFamily=Times New Roman;fontSize=16;align=center;strokeWidth=2;fillColor=#d5e8d4;strokeColor=#82b366;" vertex="1" parent="1">
          <mxGeometry x="208.75" y="560" width="231.25" height="50" as="geometry" />
        </mxCell>
        <mxCell id="44p9dVUpJdmk08ztDr2i-41" value="" style="edgeStyle=orthogonalEdgeStyle;rounded=0;orthogonalLoop=1;jettySize=auto;html=1;fontFamily=Times New Roman;fontSize=16;fontColor=#000000;startArrow=none;startFill=0;endArrow=classic;endFill=1;strokeWidth=2;" edge="1" parent="1" source="44p9dVUpJdmk08ztDr2i-37" target="44p9dVUpJdmk08ztDr2i-40">
          <mxGeometry relative="1" as="geometry" />
        </mxCell>
        <mxCell id="44p9dVUpJdmk08ztDr2i-53" value="" style="edgeStyle=orthogonalEdgeStyle;rounded=0;orthogonalLoop=1;jettySize=auto;html=1;fontFamily=Times New Roman;fontSize=16;fontColor=#000000;startArrow=none;startFill=0;endArrow=classic;endFill=1;strokeWidth=2;" edge="1" parent="1" source="44p9dVUpJdmk08ztDr2i-37" target="44p9dVUpJdmk08ztDr2i-52">
          <mxGeometry relative="1" as="geometry" />
        </mxCell>
        <mxCell id="44p9dVUpJdmk08ztDr2i-37" value="&lt;span&gt;判断请求&lt;br&gt;对应的映射&lt;br&gt;是否存在&lt;/span&gt;" style="strokeWidth=2;html=1;shape=mxgraph.flowchart.decision;whiteSpace=wrap;rounded=1;fontFamily=Times New Roman;fontSize=16;fontColor=#000000;align=center;" vertex="1" parent="1">
          <mxGeometry x="490" y="515" width="140" height="140" as="geometry" />
        </mxCell>
        <mxCell id="44p9dVUpJdmk08ztDr2i-44" value="" style="edgeStyle=orthogonalEdgeStyle;rounded=0;orthogonalLoop=1;jettySize=auto;html=1;fontFamily=Times New Roman;fontSize=16;fontColor=#000000;startArrow=none;startFill=0;endArrow=classic;endFill=1;strokeWidth=2;" edge="1" parent="1" source="44p9dVUpJdmk08ztDr2i-40" target="44p9dVUpJdmk08ztDr2i-43">
          <mxGeometry relative="1" as="geometry" />
        </mxCell>
        <mxCell id="44p9dVUpJdmk08ztDr2i-47" value="" style="edgeStyle=orthogonalEdgeStyle;rounded=0;orthogonalLoop=1;jettySize=auto;html=1;fontFamily=Times New Roman;fontSize=16;fontColor=#000000;startArrow=none;startFill=0;endArrow=classic;endFill=1;strokeWidth=2;" edge="1" parent="1" source="44p9dVUpJdmk08ztDr2i-40" target="44p9dVUpJdmk08ztDr2i-46">
          <mxGeometry relative="1" as="geometry" />
        </mxCell>
        <mxCell id="44p9dVUpJdmk08ztDr2i-40" value="&lt;span&gt;判断是否配置了&lt;br&gt;&lt;/span&gt;mvc:default-servlet-handler" style="strokeWidth=2;html=1;shape=mxgraph.flowchart.decision;whiteSpace=wrap;rounded=1;fontFamily=Times New Roman;fontSize=16;fontColor=#000000;align=center;" vertex="1" parent="1">
          <mxGeometry x="680" y="515" width="140" height="140" as="geometry" />
        </mxCell>
        <mxCell id="44p9dVUpJdmk08ztDr2i-42" value="不存在" style="text;html=1;align=center;verticalAlign=middle;resizable=0;points=[];autosize=1;strokeColor=none;fillColor=none;fontSize=16;fontFamily=Times New Roman;fontColor=#000000;" vertex="1" parent="1">
          <mxGeometry x="620" y="550" width="60" height="20" as="geometry" />
        </mxCell>
        <mxCell id="44p9dVUpJdmk08ztDr2i-43" value="控制台报映射查找不到。&lt;br&gt;客户端显示404" style="whiteSpace=wrap;html=1;rounded=1;fontFamily=Times New Roman;fontSize=16;strokeWidth=2;fillColor=#d0cee2;strokeColor=#56517e;" vertex="1" parent="1">
          <mxGeometry x="900" y="555" width="120" height="60" as="geometry" />
        </mxCell>
        <mxCell id="44p9dVUpJdmk08ztDr2i-45" value="没配置" style="text;html=1;align=center;verticalAlign=middle;resizable=0;points=[];autosize=1;strokeColor=none;fillColor=none;fontSize=16;fontFamily=Times New Roman;fontColor=#000000;" vertex="1" parent="1">
          <mxGeometry x="827" y="550" width="60" height="20" as="geometry" />
        </mxCell>
        <mxCell id="44p9dVUpJdmk08ztDr2i-46" value="访问目标资源（静态资源）" style="whiteSpace=wrap;html=1;rounded=1;fontFamily=Times New Roman;fontSize=16;strokeWidth=2;fillColor=#d0cee2;strokeColor=#56517e;" vertex="1" parent="1">
          <mxGeometry x="690" y="740" width="120" height="60" as="geometry" />
        </mxCell>
        <mxCell id="44p9dVUpJdmk08ztDr2i-48" value="有配置" style="text;html=1;align=center;verticalAlign=middle;resizable=0;points=[];autosize=1;strokeColor=none;fillColor=none;fontSize=16;fontFamily=Times New Roman;fontColor=#000000;" vertex="1" parent="1">
          <mxGeometry x="750" y="670" width="60" height="20" as="geometry" />
        </mxCell>
        <mxCell id="44p9dVUpJdmk08ztDr2i-49" value="" style="endArrow=classic;html=1;rounded=0;fontFamily=Times New Roman;fontSize=16;fontColor=#000000;strokeWidth=2;entryX=0.5;entryY=1;entryDx=0;entryDy=0;" edge="1" parent="1" target="44p9dVUpJdmk08ztDr2i-43">
          <mxGeometry width="50" height="50" relative="1" as="geometry">
            <mxPoint x="750" y="710" as="sourcePoint" />
            <mxPoint x="670" y="670" as="targetPoint" />
            <Array as="points">
              <mxPoint x="960" y="710" />
            </Array>
          </mxGeometry>
        </mxCell>
        <mxCell id="44p9dVUpJdmk08ztDr2i-50" value="找不到" style="text;html=1;align=center;verticalAlign=middle;resizable=0;points=[];autosize=1;strokeColor=none;fillColor=none;fontSize=16;fontFamily=Times New Roman;fontColor=#000000;" vertex="1" parent="1">
          <mxGeometry x="900" y="660" width="60" height="20" as="geometry" />
        </mxCell>
        <mxCell id="44p9dVUpJdmk08ztDr2i-56" value="" style="edgeStyle=orthogonalEdgeStyle;rounded=0;orthogonalLoop=1;jettySize=auto;html=1;fontFamily=Times New Roman;fontSize=16;fontColor=#000000;startArrow=none;startFill=0;endArrow=classic;endFill=1;strokeWidth=2;" edge="1" parent="1" source="44p9dVUpJdmk08ztDr2i-52" target="44p9dVUpJdmk08ztDr2i-55">
          <mxGeometry relative="1" as="geometry" />
        </mxCell>
        <mxCell id="44p9dVUpJdmk08ztDr2i-52" value="&lt;span class=&quot;&quot; style=&quot;box-sizing: border-box ; word-break: break-word ; text-align: left&quot;&gt;调用&lt;/span&gt;&lt;span style=&quot;padding-right: 0.125em ; padding-left: 0.125em&quot;&gt;&lt;i style=&quot;box-sizing: border-box ; text-align: left ; padding: 0px 0.125em&quot;&gt;&lt;/i&gt;&lt;/span&gt;&lt;span class=&quot;&quot; style=&quot;box-sizing: border-box ; word-break: break-word ; text-align: left&quot;&gt;&lt;b&gt;HandlerMapping&lt;/b&gt;&lt;/span&gt;&lt;span style=&quot;padding-right: 0.125em ; padding-left: 0.125em&quot;&gt;&lt;i style=&quot;box-sizing: border-box ; text-align: left ; padding: 0px 0.125em&quot;&gt;&lt;/i&gt;&lt;/span&gt;&lt;span class=&quot;&quot; style=&quot;box-sizing: border-box ; word-break: break-word ; text-align: left&quot;&gt;获得该&lt;/span&gt;&lt;span style=&quot;padding-right: 0.125em ; padding-left: 0.125em&quot;&gt;&lt;i style=&quot;box-sizing: border-box ; text-align: left ; padding: 0px 0.125em&quot;&gt;&lt;/i&gt;&lt;/span&gt;&lt;span class=&quot;&quot; style=&quot;box-sizing: border-box ; word-break: break-word ; text-align: left&quot;&gt;Handler&lt;/span&gt;&lt;span style=&quot;padding-right: 0.125em ; padding-left: 0.125em&quot;&gt;&lt;i style=&quot;box-sizing: border-box ; text-align: left ; padding: 0px 0.125em&quot;&gt;&lt;/i&gt;&lt;/span&gt;&lt;span class=&quot;&quot; style=&quot;box-sizing: border-box ; word-break: break-word ; text-align: left&quot;&gt;配置的所有相关的对象&lt;br&gt;（包括&lt;/span&gt;&lt;span style=&quot;padding-right: 0.125em ; padding-left: 0.125em&quot;&gt;&lt;i style=&quot;box-sizing: border-box ; text-align: left ; padding: 0px 0.125em&quot;&gt;&lt;/i&gt;&lt;/span&gt;&lt;span class=&quot;&quot; style=&quot;box-sizing: border-box ; word-break: break-word ; text-align: left&quot;&gt;Handler&lt;/span&gt;&lt;span style=&quot;padding-right: 0.125em ; padding-left: 0.125em&quot;&gt;&lt;i style=&quot;box-sizing: border-box ; text-align: left ; padding: 0px 0.125em&quot;&gt;&lt;/i&gt;&lt;/span&gt;&lt;span class=&quot;&quot; style=&quot;box-sizing: border-box ; word-break: break-word ; text-align: left&quot;&gt;对象、&lt;/span&gt;&lt;span style=&quot;padding-right: 0.125em ; padding-left: 0.125em&quot;&gt;&lt;i style=&quot;box-sizing: border-box ; text-align: left ; padding: 0px 0.125em&quot;&gt;&lt;/i&gt;&lt;/span&gt;&lt;span class=&quot;&quot; style=&quot;box-sizing: border-box ; word-break: break-word ; text-align: left&quot;&gt;Handler&lt;/span&gt;&lt;span style=&quot;padding-right: 0.125em ; padding-left: 0.125em&quot;&gt;&lt;i style=&quot;box-sizing: border-box ; text-align: left ; padding: 0px 0.125em&quot;&gt;&lt;/i&gt;&lt;/span&gt;&lt;span class=&quot;&quot; style=&quot;box-sizing: border-box ; word-break: break-word ; text-align: left&quot;&gt;对象对应的拦截器）&lt;br&gt;最后以&lt;/span&gt;&lt;span style=&quot;padding-right: 0.125em ; padding-left: 0.125em&quot;&gt;&lt;i style=&quot;box-sizing: border-box ; text-align: left ; padding: 0px 0.125em&quot;&gt;&lt;/i&gt;&lt;/span&gt;&lt;span class=&quot;&quot; style=&quot;box-sizing: border-box ; word-break: break-word ; text-align: left&quot;&gt;HandlerExecutionChain&lt;/span&gt;&lt;span style=&quot;padding-right: 0.125em ; padding-left: 0.125em&quot;&gt;&lt;i style=&quot;box-sizing: border-box ; text-align: left ; padding: 0px 0.125em&quot;&gt;&lt;/i&gt;&lt;/span&gt;&lt;span class=&quot;&quot; style=&quot;box-sizing: border-box ; word-break: break-word ; text-align: left&quot;&gt;执行链对象的形式返回。&lt;/span&gt;" style="whiteSpace=wrap;html=1;rounded=1;fontFamily=Times New Roman;fontSize=16;strokeWidth=2;fillColor=#d5e8d4;strokeColor=#82b366;" vertex="1" parent="1">
          <mxGeometry x="140" y="730" width="465" height="80" as="geometry" />
        </mxCell>
        <mxCell id="44p9dVUpJdmk08ztDr2i-54" value="存在" style="text;html=1;align=center;verticalAlign=middle;resizable=0;points=[];autosize=1;strokeColor=none;fillColor=none;fontSize=16;fontFamily=Times New Roman;fontColor=#000000;" vertex="1" parent="1">
          <mxGeometry x="440" y="670" width="50" height="20" as="geometry" />
        </mxCell>
        <mxCell id="44p9dVUpJdmk08ztDr2i-58" value="" style="edgeStyle=orthogonalEdgeStyle;rounded=0;orthogonalLoop=1;jettySize=auto;html=1;fontFamily=Times New Roman;fontSize=16;fontColor=#000000;startArrow=none;startFill=0;endArrow=classic;endFill=1;strokeWidth=2;" edge="1" parent="1" source="44p9dVUpJdmk08ztDr2i-55" target="44p9dVUpJdmk08ztDr2i-57">
          <mxGeometry relative="1" as="geometry" />
        </mxCell>
        <mxCell id="44p9dVUpJdmk08ztDr2i-55" value="DispatcherServlet 根据获得的Handler，&lt;br&gt;选择一个合适的&lt;b&gt;HandlerAdapter&lt;/b&gt;" style="rounded=1;whiteSpace=wrap;html=1;fontFamily=Times New Roman;fontSize=16;strokeWidth=2;align=center;fillColor=#d5e8d4;strokeColor=#82b366;" vertex="1" parent="1">
          <mxGeometry x="226.87" y="850" width="291.25" height="60" as="geometry" />
        </mxCell>
        <mxCell id="44p9dVUpJdmk08ztDr2i-60" value="" style="edgeStyle=orthogonalEdgeStyle;rounded=0;orthogonalLoop=1;jettySize=auto;html=1;fontFamily=Times New Roman;fontSize=16;fontColor=#000000;startArrow=none;startFill=0;endArrow=classic;endFill=1;strokeWidth=2;" edge="1" parent="1" source="44p9dVUpJdmk08ztDr2i-57" target="44p9dVUpJdmk08ztDr2i-59">
          <mxGeometry relative="1" as="geometry" />
        </mxCell>
        <mxCell id="44p9dVUpJdmk08ztDr2i-57" value="如果成功获得HandlerAdapter，&lt;br&gt;此时将开始执行拦截器的preHandler(…)方法" style="rounded=1;whiteSpace=wrap;html=1;fontFamily=Times New Roman;fontSize=16;strokeWidth=2;align=center;fillColor=#fad9d5;strokeColor=#ae4132;" vertex="1" parent="1">
          <mxGeometry x="212.5" y="950" width="320" height="60" as="geometry" />
        </mxCell>
        <mxCell id="44p9dVUpJdmk08ztDr2i-62" value="" style="edgeStyle=orthogonalEdgeStyle;rounded=0;orthogonalLoop=1;jettySize=auto;html=1;fontFamily=Times New Roman;fontSize=16;fontColor=#000000;startArrow=none;startFill=0;endArrow=classic;endFill=1;strokeWidth=2;" edge="1" parent="1" source="44p9dVUpJdmk08ztDr2i-59" target="44p9dVUpJdmk08ztDr2i-61">
          <mxGeometry relative="1" as="geometry" />
        </mxCell>
        <mxCell id="44p9dVUpJdmk08ztDr2i-59" value="执行&lt;b&gt;Handler&lt;/b&gt;（Controller)方法，处理请求。&lt;br&gt;向DispatcherServlet 返回一个ModelAndView对象" style="rounded=1;whiteSpace=wrap;html=1;fontFamily=Times New Roman;fontSize=16;strokeWidth=2;align=center;strokeColor=#82b366;fillColor=#d5e8d4;" vertex="1" parent="1">
          <mxGeometry x="597" y="935" width="230" height="90" as="geometry" />
        </mxCell>
        <mxCell id="44p9dVUpJdmk08ztDr2i-64" value="" style="edgeStyle=orthogonalEdgeStyle;rounded=0;orthogonalLoop=1;jettySize=auto;html=1;fontFamily=Times New Roman;fontSize=16;fontColor=#000000;startArrow=none;startFill=0;endArrow=classic;endFill=1;strokeWidth=2;" edge="1" parent="1" source="44p9dVUpJdmk08ztDr2i-61" target="44p9dVUpJdmk08ztDr2i-63">
          <mxGeometry relative="1" as="geometry" />
        </mxCell>
        <mxCell id="44p9dVUpJdmk08ztDr2i-61" value="执行拦截器的postHandle(...)方法" style="whiteSpace=wrap;html=1;rounded=1;fontFamily=Times New Roman;fontSize=16;fontColor=rgba(0, 0, 0, 1);strokeWidth=2;strokeColor=#ae4132;fillColor=#fad9d5;" vertex="1" parent="1">
          <mxGeometry x="870" y="950" width="230" height="60" as="geometry" />
        </mxCell>
        <mxCell id="44p9dVUpJdmk08ztDr2i-66" value="" style="edgeStyle=orthogonalEdgeStyle;rounded=0;orthogonalLoop=1;jettySize=auto;html=1;fontFamily=Times New Roman;fontSize=16;fontColor=#000000;startArrow=none;startFill=0;endArrow=classic;endFill=1;strokeWidth=2;" edge="1" parent="1" source="44p9dVUpJdmk08ztDr2i-63" target="44p9dVUpJdmk08ztDr2i-65">
          <mxGeometry relative="1" as="geometry" />
        </mxCell>
        <mxCell id="44p9dVUpJdmk08ztDr2i-63" value="根据返回的ModelAndView。&lt;br&gt;选择一个适合的&lt;b&gt;ViewResolver&lt;/b&gt;进行视图解析，&lt;br&gt;根据Model和&lt;b&gt;View&lt;/b&gt;，来渲染视图。" style="whiteSpace=wrap;html=1;rounded=1;fontFamily=Times New Roman;fontSize=16;strokeWidth=2;strokeColor=#82b366;fillColor=#d5e8d4;" vertex="1" parent="1">
          <mxGeometry x="803.75" y="1060" width="362.5" height="60" as="geometry" />
        </mxCell>
        <mxCell id="44p9dVUpJdmk08ztDr2i-68" value="" style="edgeStyle=orthogonalEdgeStyle;rounded=0;orthogonalLoop=1;jettySize=auto;html=1;fontFamily=Times New Roman;fontSize=16;fontColor=#000000;startArrow=none;startFill=0;endArrow=classic;endFill=1;strokeWidth=2;" edge="1" parent="1" source="44p9dVUpJdmk08ztDr2i-65" target="44p9dVUpJdmk08ztDr2i-67">
          <mxGeometry relative="1" as="geometry" />
        </mxCell>
        <mxCell id="44p9dVUpJdmk08ztDr2i-65" value="渲染视图完毕执行拦截器的afterCompletion(…)方法" style="whiteSpace=wrap;html=1;rounded=1;fontFamily=Times New Roman;fontSize=16;fontColor=rgba(0, 0, 0, 1);strokeWidth=2;strokeColor=#ae4132;fillColor=#fad9d5;" vertex="1" parent="1">
          <mxGeometry x="520" y="1060" width="230" height="60" as="geometry" />
        </mxCell>
        <mxCell id="44p9dVUpJdmk08ztDr2i-67" value="将渲染结果返回给客户端" style="whiteSpace=wrap;html=1;rounded=1;fontFamily=Times New Roman;fontSize=16;strokeWidth=2;fillColor=#d0cee2;strokeColor=#56517e;" vertex="1" parent="1">
          <mxGeometry x="190" y="1060" width="195" height="60" as="geometry" />
        </mxCell>
      </root>
    </mxGraphModel>
  </diagram>
</mxfile>
